<svg width="253" height="69" viewBox="0 0 253 69" fill="none" xmlns="http://www.w3.org/2000/svg">
<path d="M52.8281 33V12.2656H59.7344V21.5312H66.1094V25.6094H59.7344V33H52.8281ZM64.4531 19.1406V16.4062H60.8281V12.2656H71.3594V19.1406H64.4531ZM82.3906 26.7812V22.7656H87.5781V16.4062H82.3906V12.2656H90.2812L94.4375 16.4062V22.625L91.2188 25.8438L95.1406 33H87.7656L84.8281 26.7812H82.3906ZM74.3906 33V12.2656H81.2969V33H74.3906ZM97.7344 33V12.2656H104.641V20.4844H111.25V24.4844H104.641V33H97.7344ZM110.031 18.2656V16.2812H105.734V12.2656H116.531V18.2656H110.031ZM105.734 33V28.8594H109.625V26.7812H116.531V33H105.734ZM119.734 33V12.2656H126.641V20.4844H133.25V24.4844H126.641V33H119.734ZM132.031 18.2656V16.2812H127.734V12.2656H138.531V18.2656H132.031ZM127.734 33V28.8594H131.625V26.7812H138.531V33H127.734ZM149.734 33V28.8594H154.859V16.4062H149.734V12.2656H157.625L161.781 16.4062V28.8594L157.625 33H149.734ZM141.734 33V12.2656H148.641V33H141.734ZM175.578 33V28.7812H178.219V16.4688H175.578V12.2656H180.938L185.125 16.4062V28.8594L180.938 33H175.578ZM169.172 33L164.969 28.8594V16.4062L169.172 12.2656H174.484V16.4688H171.891V28.7812H174.484V33H169.172ZM200.641 33L188.344 12.2656H195.688L201.25 21.4844L205.625 13.9844V24.4219L200.641 33ZM206.641 33V12.2656H213.547V33H206.641ZM188.328 33V14.1875L194.781 25.0156V33H188.328ZM224.094 12.2656V17.1094L221.344 21.25H217.172L219.125 17.1094H216.5V12.2656H224.094ZM236.094 33V26.7344H228.625L225.031 23.2812V20.125L228.766 16.4062H231.531V22.2656H239.406L243 25.8906V29.125L239.141 33H236.094ZM236.094 20.75V19.4531H232.625V16.4062H239.969L242.438 18.875V20.75H236.094ZM227.891 33L225.016 29.5781V28.25H231.938V29.9531H235V33H227.891ZM60.7031 57.6719V53.5156H65.7188V46.4062H60.7031V42.2656H68.4531L72.5938 46.4062V53.5156L68.4531 57.6719H60.7031ZM52.8281 63V42.2656H59.6094V63H52.8281ZM87.7812 63L86.9062 60.7344H80.125L81.5625 56.625H85.3125L79.7656 42.2656H86.5L94.7656 63H87.7812ZM71.6094 63L79.0156 43.2031L82.0781 51.4375L78.2812 63H71.6094ZM92.8125 46.7812V42.2656H110.812V46.7812H92.8125ZM98.2188 63V47.8594H105.406V63H98.2188ZM126.578 63V54.5781H121.453V50.4219H126.531V42.2656H133.5V63H126.578ZM113.453 63V42.2656H120.359V63H113.453Z" fill="#55564F"/>
<g clip-path="url(#clip0_1467_14)">
<path d="M42.987 28.1179C42.9568 27.5576 42.8769 27.0004 42.8423 26.4401C42.8004 25.7521 42.6785 25.0926 42.3639 24.4713C42.2787 24.3035 42.2892 24.0859 42.2599 23.9159C42.5413 23.721 42.7711 23.5621 42.9861 23.4134C42.9166 23.04 42.789 22.7543 42.4425 22.7494C42.1192 22.7454 41.9641 22.5518 41.8313 22.3258C41.6679 22.0481 41.511 21.7583 41.4079 21.4539C41.1946 20.8251 40.7918 20.4068 40.2072 20.1242C39.9245 19.988 39.6505 19.7993 39.4281 19.5768C39.0257 19.1736 38.6171 18.8135 38.0282 18.741C37.9163 18.7272 37.8097 18.6622 37.7013 18.6182C37.5047 18.5385 37.3448 18.4415 37.3334 18.182C37.3229 17.9408 37.1455 17.8362 36.9293 17.7828C36.647 17.7129 36.363 17.644 36.0873 17.5523C35.7836 17.4517 35.6254 17.2541 35.6163 16.8945C35.6071 16.5149 35.5446 16.1277 35.4445 15.7615C35.2798 15.1593 34.9102 14.7405 34.3133 14.5029C33.8161 14.3048 33.2983 14.2563 32.7888 14.1429C31.9809 13.9635 31.3006 14.1682 30.7099 14.7437C30.5679 14.8825 30.3983 14.9915 30.1978 15.1482C29.7866 14.7245 29.4047 14.3307 29.0604 13.976V13.1744C29.2291 13.0935 29.4157 13.0116 29.5948 12.9154C29.9749 12.7107 30.0462 12.5581 29.9299 12.1237C29.8775 11.9275 29.7818 11.7414 29.6927 11.5572C29.5913 11.3485 29.4751 11.1473 29.3728 10.9568C29.8255 10.4054 29.8421 10.2688 29.5258 9.7659C29.0705 9.04316 28.4024 8.57098 27.6718 8.18825C27.3891 8.04005 27.0741 8.00489 26.7385 8.08678C26.1168 8.23853 25.4854 8.35246 24.8549 8.46506C24.5774 8.51446 24.2838 8.6137 23.9714 8.35202C23.9954 7.65153 23.9911 6.91455 24.0535 6.18335C24.1239 5.36537 23.9954 4.59011 23.6983 3.83934C23.5362 3.42946 23.4034 2.98753 23.1526 2.63773C22.367 1.5425 21.4223 0.633729 20.073 0.290605C20.0171 0.276364 19.9642 0.248771 19.9101 0.226965C19.384 0.0186869 18.8588 -0.101473 18.296 0.11348C18.1129 0.183351 17.8923 0.144188 17.6904 0.171335C16.7846 0.294165 15.8819 0.498438 15.2025 1.1433C14.5925 1.72185 14.0227 2.35781 13.6496 3.15086C13.2411 4.01913 12.9898 4.91811 12.9426 5.87761C12.9164 6.41388 12.8417 6.93769 12.542 7.39964C12.3314 7.72407 12.3528 8.06987 12.4371 8.41744C12.6669 8.61415 12.8911 8.79839 13.106 8.99243C13.2127 9.089 13.3398 9.18824 13.3944 9.31419C13.6522 9.91143 14.1966 10.3146 14.4282 10.9266C14.4488 10.9795 14.4894 11.0298 14.5322 11.0685C15.1575 11.6391 15.3314 12.3431 15.1356 13.1593C15.1221 13.2158 15.133 13.2777 15.1269 13.3364C15.0845 13.7383 14.9941 13.8723 14.5847 13.8651C14.0848 13.8562 13.7706 14.0903 13.4962 14.474C13.0838 15.0512 12.7272 15.6555 12.4428 16.3102C12.0867 17.1295 11.8695 17.9924 11.6969 18.8594C11.5798 19.4455 11.1643 19.9951 11.4168 20.6457C11.4313 20.6827 11.3836 20.7619 11.3443 20.8002C11.0935 21.0481 11.1468 21.3387 11.2255 21.6306C11.3596 22.1313 11.3028 22.6066 11.1708 23.1104C11.0306 23.6466 11.0087 24.2185 10.972 24.7775C10.9563 25.0209 10.9349 25.2336 10.7907 25.4419C10.6247 25.6813 10.6461 25.9417 10.8239 26.1825C10.8912 26.2741 10.9764 26.3707 10.8038 26.526C10.4294 26.4784 10.0462 26.5367 9.84911 27.0022C9.77134 27.186 9.5769 27.2096 9.39819 27.2123C9.1002 27.2167 8.82973 27.1344 8.56801 26.9279C8.58723 26.7454 8.60821 26.5741 8.62306 26.4019C8.64316 26.1678 8.71351 25.9203 8.6637 25.7023C8.59247 25.3907 8.64447 25.1219 8.74715 24.8393C8.87823 24.4793 9.00189 24.1139 8.87474 23.7432C8.79696 23.696 8.75108 23.6471 8.69953 23.6404C8.42993 23.6048 8.28312 23.4708 8.27613 23.1785C8.26739 22.7939 8.23593 22.4099 8.22108 22.0254C8.16122 20.457 8.09961 18.8887 8.04805 17.32C8.03232 16.8487 8.04543 16.3761 8.04543 15.8963C8.45178 15.5759 8.84546 15.2719 9.23215 14.9586C9.52796 14.7187 9.82945 14.4829 10.1012 14.2167C10.3678 13.955 10.2751 13.5563 9.9164 13.4424C9.67171 13.3649 9.40387 13.3498 9.1452 13.3338C8.65102 13.304 8.15597 13.2982 7.66136 13.2732C7.39264 13.2599 7.24059 13.0854 7.17636 12.8367C7.13966 12.6956 7.12786 12.5452 7.12436 12.3979C7.0846 10.7089 7.0479 9.01958 7.0112 7.33021C7.00857 7.21183 6.98935 7.08544 7.02168 6.97596C7.22573 6.27725 7.12873 5.5643 7.12742 4.85669C7.12742 4.69025 7.068 4.52336 7.03217 4.33644C6.82506 4.31063 6.65509 4.26613 6.48774 4.27325C6.19019 4.28615 6.07134 4.40809 6.0709 4.72185C6.07003 5.31419 6.01629 5.92211 6.12683 6.49532C6.24131 7.08589 6.25136 7.66889 6.26272 8.25856C6.28762 9.53315 6.3051 10.8077 6.32345 12.0823C6.32782 12.3752 6.32433 12.668 6.32433 13.0098C6.09362 12.9226 5.92234 12.858 5.75369 12.7944C5.48978 13.0467 5.48322 13.3338 5.43079 13.6044C5.65669 13.7129 5.83233 13.7979 6.02066 13.8883C5.8284 14.7828 5.67635 15.6506 5.45176 16.4989C5.17212 17.5554 5.0004 18.6017 5.11182 19.7094C5.28966 21.4837 5.07949 23.2617 5.0441 25.0387C5.04148 25.1833 5.00259 25.3275 4.97812 25.4895C4.81514 25.5728 4.65304 25.6377 4.5106 25.7334C4.36815 25.8291 4.20299 25.9319 4.12609 26.0752C4.04919 26.2181 4.07103 26.4152 4.04526 26.5879C4.04132 26.6146 4.01904 26.6453 3.99676 26.6604C3.60264 26.9208 3.66687 27.2964 3.71231 27.6911C3.74552 27.9809 3.73066 28.2857 3.68303 28.5745C3.58254 29.1802 3.76168 29.6782 4.1641 30.1126C4.3013 30.2603 4.42146 30.4295 4.57614 30.555C4.9838 30.8865 5.40588 31.1989 5.85156 31.542C5.8721 31.6854 5.88957 31.8616 5.92322 32.0343C5.95511 32.1994 6.00405 32.3614 6.04075 32.5051C5.56842 32.9074 5.56842 32.9101 5.1743 32.9092C4.54555 32.9074 3.91505 32.7316 3.28892 32.9987C3.11938 33.0712 2.88693 32.9924 2.68376 32.9809C2.4513 32.9675 2.21842 32.9377 1.9864 32.9404C1.50402 32.9461 1.31177 33.1282 1.22962 33.6133C1.13568 34.1669 1.0282 34.7183 0.94037 35.2732C0.890122 35.5906 0.823271 35.9172 1.07407 36.2799C1.46033 36.3133 1.89071 36.3556 2.3211 36.3867C3.05952 36.4397 3.16308 36.5305 3.17968 37.3017C3.19759 38.1286 3.18361 38.9564 3.18361 39.7859C3.04641 39.8918 2.94242 40.0027 2.81571 40.0645C1.99296 40.4659 1.33012 41.2145 0.326909 41.2354C0.163931 41.2385 0.0293536 41.4054 0.00619581 41.6092C-0.052354 42.1219 0.279282 43.2995 0.651117 43.8727C0.905852 43.9248 1.08718 43.7619 1.27375 43.6262C2.07947 43.0405 2.88169 42.4499 3.68609 41.8625C3.85126 41.7414 4.00986 41.6052 4.18857 41.51C4.4988 41.3449 4.92875 41.4112 5.16862 41.6333C5.49458 41.9341 5.57454 42.2523 5.41768 42.6635C5.34384 42.8567 5.25164 43.0423 5.17649 43.235C4.65915 44.5563 4.09419 45.8607 3.64196 47.2043C3.11414 48.7726 2.68638 50.3756 2.21186 51.9626C2.15244 52.162 2.12447 52.4059 2.03315 52.5777C2.00869 52.7472 1.98334 52.9168 1.95014 53.085C1.90426 53.3169 1.85182 53.5478 1.80857 53.7801C1.7959 53.8491 1.78366 53.9181 1.77274 53.9871C1.77012 54.0031 1.76793 54.0191 1.76531 54.0351C1.75526 54.1491 1.74346 54.2621 1.74128 54.3769C1.73997 54.4437 1.7404 54.5109 1.74434 54.5776C1.74609 54.6052 1.75089 54.6337 1.75089 54.6613C1.75089 54.6658 1.75089 54.6689 1.75089 54.6724C1.7605 54.7063 1.7723 54.7405 1.77623 54.7534C1.78191 54.7744 1.7924 54.7975 1.79721 54.8193C1.80988 54.8469 1.8243 54.8838 1.8409 54.9119C1.84396 54.9137 1.84745 54.9159 1.85182 54.9185C1.85226 54.9185 1.85314 54.9194 1.85357 54.9199C1.83435 54.8887 1.81381 54.8482 1.83959 54.8945C1.85095 54.915 1.87411 54.9274 1.88984 54.9448C1.89989 54.9524 1.91037 54.9595 1.92086 54.9666C1.96805 54.9978 2.01699 55.0267 2.06636 55.0534C2.07816 55.0596 2.09039 55.0659 2.10219 55.0721C2.27915 55.0676 2.45567 55.0596 2.63263 55.0636C3.18274 55.0752 3.74552 55.2292 4.27945 55.4223C5.21931 55.5296 6.15873 55.6408 7.09946 55.7374C7.35594 55.7637 7.62335 55.7459 7.87852 55.7023C8.2521 55.6382 8.38318 55.4788 8.40983 55.1108C8.42513 54.9048 8.41464 54.696 8.41115 54.4886C8.38886 53.2434 8.3657 51.9987 8.34255 50.7534C8.29579 48.2635 8.26084 45.773 8.19399 43.2835C8.17782 42.6764 8.29929 42.2296 8.94334 42.0748C9.02155 42.0561 9.08578 41.9791 9.13122 41.947C9.08971 41.7187 9.06 41.5536 9.02504 41.3618C9.52184 41.0663 9.99767 40.7824 10.4735 40.4998C10.844 40.2799 10.9843 39.9622 10.9148 39.5265C10.8265 38.9711 10.7584 38.4117 10.6915 37.8531C10.6754 37.721 10.6981 37.5839 10.7073 37.3302C10.9257 37.5015 11.0874 37.579 11.1774 37.708C11.4623 38.1175 11.7563 38.5069 12.119 38.858C12.4266 39.1553 12.6857 39.5238 12.7652 39.9942C12.8019 40.2127 12.9597 40.4134 13.0768 40.6133C13.193 40.8122 13.3293 40.9991 13.4525 41.194C13.5627 41.3676 13.6636 41.5474 13.7746 41.7201C13.9782 42.0374 14.2604 42.1255 14.6082 42.0009C14.9648 41.8727 15.3178 41.7343 15.677 41.6155C15.8741 41.5509 16.0759 41.5358 16.2358 41.8086C16.0698 42.121 15.8395 42.4357 15.7334 42.789C15.6267 43.1442 15.6455 43.538 15.6049 43.9141C15.5796 44.1486 15.5114 44.3832 15.521 44.615C15.5551 45.4424 15.6066 46.2697 15.6691 47.0952C15.6818 47.263 15.7321 47.4544 15.8304 47.5834C16.0785 47.9096 16.1502 48.271 16.1485 48.6662C16.1476 48.8104 16.1318 48.9866 16.2026 49.0934C16.4429 49.4557 16.3704 49.8322 16.3049 50.2114C16.2345 50.6195 16.1812 51.0347 16.0646 51.4299C15.8924 52.0125 15.8374 52.5883 15.9863 53.1798C16.0541 53.449 16.0418 53.7169 15.9147 53.9595C15.7421 54.2897 15.736 54.6395 15.7325 54.9969C15.7207 56.2132 15.753 57.4254 15.8968 58.6355C16.1065 60.3987 16.2778 62.1664 16.484 63.9301C16.5557 64.5452 16.7523 65.1513 16.7711 65.7654C16.8047 66.8807 17.0914 67.9372 17.3596 69H29.9391C29.7171 68.5064 29.493 68.0147 29.1815 67.5665C29.0849 67.4277 29.0596 67.2381 29.0006 67.0725C28.6654 66.1255 28.3473 65.1722 27.9899 64.2341C27.6963 63.4624 27.6758 63.4704 28.4408 63.1767C28.8031 63.0374 28.9595 62.8184 28.9328 62.4441C28.9206 62.2683 28.8695 62.0952 28.8323 61.9217C28.7712 61.6355 28.7065 61.3502 28.6528 61.1068C28.9342 60.7018 29.2046 60.3574 29.4253 59.9822C29.6035 59.6796 29.7237 59.3409 29.8661 59.0165C30.2297 58.19 30.4787 57.3502 30.1672 56.4406C30.0754 56.1722 30.1025 55.919 30.3175 55.6813C30.9152 55.5861 31.5112 55.4432 31.7183 54.6413C31.4059 54.2078 31.0677 53.7388 30.7938 53.3578C31.2272 52.1958 31.6253 51.1277 32.0255 50.0556C32.1387 50.0027 32.2448 49.9568 32.3475 49.9039C33.0418 49.5492 33.3839 48.9813 33.3568 48.1851C33.3394 47.6836 33.3538 47.1825 33.1978 46.692C33.1104 46.4174 33.0899 46.121 33.0331 45.8011C33.6706 46.1277 34.2521 46.4254 34.8665 46.7401C34.8665 46.7423 34.8669 46.7445 34.8673 46.7468C35.143 46.7428 35.4113 46.7704 35.6866 46.8068H37.2369C37.5982 46.7339 37.9644 46.6653 38.3157 46.5532C38.355 46.5407 38.3878 46.5305 38.4166 46.5207C38.5424 46.4504 38.6639 46.3818 38.7841 46.3146C38.8042 46.279 38.8238 46.2439 38.8251 46.2421C38.9029 46.1046 38.9938 45.9595 39.0991 45.826C39.2717 45.251 39.4902 44.6934 39.6169 44.105C39.6391 44.0018 39.6636 43.8976 39.6925 43.7962C39.6758 43.7325 39.6693 43.6658 39.6754 43.5977C39.737 42.895 39.6828 42.1927 39.644 41.4904C39.6068 40.826 39.5513 40.166 39.5015 39.5024C39.4504 38.8166 39.529 38.178 39.6536 37.5051C39.6754 37.3872 39.6973 37.2657 39.7213 37.1437C39.6396 36.6012 39.5579 36.0583 39.4818 35.5149C39.3831 34.8113 39.2948 34.1059 39.0327 33.4388C39.0121 33.3876 39.0209 33.3244 39.0152 33.251C39.0969 33.0472 39.183 32.83 39.2739 32.615C39.2822 32.595 39.3211 32.5883 39.3455 32.5759C40.3802 32.7485 41.3865 32.494 42.5404 31.7726C42.5404 31.5977 42.4958 31.4134 42.5478 31.2639C42.9035 30.2434 43.0455 29.194 42.9878 28.1179H42.987ZM14.6707 10.263C14.2596 9.96261 14.1045 9.60436 13.9887 9.18825C14.2089 9.01691 14.4142 9.02759 14.6283 9.11659C14.8237 9.6275 14.8154 9.62839 14.6707 10.263ZM4.63119 38.6667C4.75703 38.8927 4.64474 39.0552 4.46603 39.1829C4.30655 39.2968 4.13395 39.2683 3.97316 39.1753C3.70794 39.0218 3.50433 38.8051 3.48554 38.486C3.45976 38.0441 3.45976 37.5995 3.47112 37.1566C3.47724 36.9065 3.659 36.7223 3.89757 36.6644C4.12085 36.6106 4.34368 36.7156 4.4704 36.9613C4.66178 37.3315 4.81602 37.7121 4.61721 38.1825H3.88184C3.97928 38.587 4.4101 38.4495 4.63119 38.6667ZM7.76972 13.7227C7.90036 13.6978 8.03975 13.623 8.10922 13.6658C8.42076 13.8576 8.71919 14.0734 9.00713 14.3C9.12685 14.3947 9.10632 14.6546 8.97043 14.7801C8.65277 15.0734 8.34779 15.3898 7.89381 15.5661C7.6264 14.9546 7.72646 14.3534 7.76972 13.7227ZM9.9649 38.8117C9.9649 38.9194 9.93825 39.0205 9.89106 39.1086C9.89062 39.109 9.89062 39.1099 9.89018 39.1104C9.80017 39.3355 9.62496 39.4998 9.34663 39.6101C9.24089 39.652 9.13166 39.6849 8.95208 39.7463C8.83541 39.5176 8.78342 39.3017 8.77643 39.0966C8.73317 39.0111 8.7087 38.9145 8.7087 38.8117V34.1816C8.7087 34.1326 8.71438 34.0854 8.72443 34.04C8.73841 33.8509 8.76157 33.6493 8.79347 33.4312C9.1404 33.2247 9.45587 33.3507 9.72546 33.6008C9.76784 33.64 9.80454 33.7112 9.82552 33.7855C9.82552 33.7855 9.82566 33.7856 9.82595 33.7859C9.91247 33.8936 9.9649 34.0311 9.9649 34.1816V38.8117Z" fill="#55564F"/>
</g>
<defs>
<clipPath id="clip0_1467_14">
<rect width="43" height="69" fill="white"/>
</clipPath>
</defs>
</svg>
